HIERARCHY
ROOT Hips
{
	OFFSET -3.958830 18.904000 13.208200
	CHANNELS 6 Xposition Yposition Zposition Zrotation Yrotation Xrotation 
	JOINT LHipJoint
	{
		OFFSET 0.000000 0.000000 0.000000
		CHANNELS 3 Zrotation Yrotation Xrotation
		JOINT LeftUpLeg
		{
			OFFSET 1.800000 -1.400000 0.085000
			CHANNELS 3 Zrotation Yrotation Xrotation
			JOINT LeftLeg
			{
				OFFSET 2.215000 -6.000000 0.000000
				CHANNELS 3 Zrotation Yrotation Xrotation
				JOINT LeftFoot
				{
					OFFSET 2.500000 -6.900000 0.000000
					CHANNELS 3 Zrotation Yrotation Xrotation
					JOINT LeftToeBase
					{
						OFFSET 0.200000 -0.500000 1.950000
						CHANNELS 3 Zrotation Yrotation Xrotation
						End Site
						{
							OFFSET 0.000000 0.000000 0.000000
						}
					}
				}
			}
		}
	}
	JOINT RHipJoint
	{
		OFFSET 0.000000 0.000000 0.000000
		CHANNELS 3 Zrotation Yrotation Xrotation
		JOINT RightUpLeg
		{
			OFFSET -1.800000 -1.400000 0.085000
			CHANNELS 3 Zrotation Yrotation Xrotation
			JOINT RightLeg
			{
				OFFSET -2.215000 -6.000000 0.000000
				CHANNELS 3 Zrotation Yrotation Xrotation
				JOINT RightFoot
				{
					OFFSET -2.500000 -6.900000 0.000000
					CHANNELS 3 Zrotation Yrotation Xrotation
					JOINT RightToeBase
					{
						OFFSET -0.200000 -0.500000 1.950000
						CHANNELS 3 Zrotation Yrotation Xrotation
						End Site
						{
							OFFSET 0.000000 0.000000 0.000000
						}
					}
				}
			}
		}
	}
	JOINT LowerBack
	{
		OFFSET 0.000000 0.000000 0.000000
		CHANNELS 3 Zrotation Yrotation Xrotation
		JOINT Spine
		{
			OFFSET -0.087000 1.940000 -0.288900
			CHANNELS 3 Zrotation Yrotation Xrotation
			JOINT Spine1
			{
				OFFSET 0.000000 1.950000 0.060000
				CHANNELS 3 Zrotation Yrotation Xrotation
				JOINT Neck
				{
					OFFSET 0.000000 0.000000 0.000000
					CHANNELS 3 Zrotation Yrotation Xrotation
					JOINT Neck1
					{
						OFFSET 0.000000 1.600000 0.340000
						CHANNELS 3 Zrotation Yrotation Xrotation
						JOINT Head
						{
							OFFSET 0.000000 1.667000 -0.240000
							CHANNELS 3 Zrotation Yrotation Xrotation
							End Site
							{
								OFFSET 0.000000 0.000000 0.000000
							}
						}
					}
				}
				JOINT LeftShoulder
				{
					OFFSET 0.000000 0.000000 0.000000
					CHANNELS 3 Zrotation Yrotation Xrotation
					JOINT LeftArm
					{
						OFFSET 2.700000 1.550000 -0.730000
						CHANNELS 3 Zrotation Yrotation Xrotation
						JOINT LeftForeArm
						{
							OFFSET 5.450000 0.000000 0.000000
							CHANNELS 3 Zrotation Yrotation Xrotation
							JOINT LeftHand
							{
								OFFSET 3.450000 0.000000 0.000000
								CHANNELS 3 Zrotation Yrotation Xrotation
								JOINT LeftHandIndex1
								{
									OFFSET 0.750000 0.000000 0.000000
									CHANNELS 3 Zrotation Yrotation Xrotation
									End Site
									{
										OFFSET 0.000000 0.000000 0.000000
									}
								}
							}
						}
					}
				}
				JOINT RightShoulder
				{
					OFFSET 0.000000 0.000000 0.000000
					CHANNELS 3 Zrotation Yrotation Xrotation
					JOINT RightArm
					{
						OFFSET -2.700000 1.550000 -0.730000
						CHANNELS 3 Zrotation Yrotation Xrotation
						JOINT RightForeArm
						{
							OFFSET -5.450000 0.000000 0.000000
							CHANNELS 3 Zrotation Yrotation Xrotation
							JOINT RightHand
							{
								OFFSET -3.450000 0.000000 0.000000
								CHANNELS 3 Zrotation Yrotation Xrotation
								JOINT RightHandIndex1
								{
									OFFSET -0.750000 0.000000 0.000000
									CHANNELS 3 Zrotation Yrotation Xrotation
									End Site
									{
										OFFSET 0.000000 0.000000 0.000000
									}
								}
							}
						}
					}
				}
			}
		}
	}
}
MOTION
Frames: 5
Frame Time: 0.016667
0.235480 13.857340 -2.845050 -75.051073 38.245619 -75.820551 -15.724021 12.870623 4.530430 -12.417660 -8.779833 -29.922288 2.314703 7.435622 40.067327 -0.069796 6.443801 2.295910 -0.184430 -0.500660 -0.234080 17.884136 -9.108631 3.515062 -14.855831 10.320878 -32.090371 2.539178 -11.059897 66.326263 -1.346687 -9.927635 0.977169 -0.206520 0.472450 -0.004500 -2.176552 -4.591580 -8.543334 -0.994217 7.272983 54.374327 1.752380 6.734043 16.113763 2.407960 1.665946 -16.311082 -2.649732 -3.977165 48.661640 22.511770 -14.480520 -8.358020 -8.969141 -26.470450 10.525218 -17.750180 -10.815264 1.546076 3.545421 0.789082 -0.930102 -3.913292 2.409508 0.690580 -0.019990 -0.109590 0.036630 3.610484 30.152369 11.605020 -9.470194 -7.461598 -18.523163 -126.348156 11.149605 -36.384446 2.387341 -1.877364 -0.455910 0.447260 0.383540 -0.097960 
0.209760 13.817150 -2.903220 -74.984846 37.801242 -74.690371 -15.693305 12.339916 4.488340 -12.134440 -9.627294 -31.383942 -0.195842 7.704946 37.534446 -0.076048 6.025201 2.458100 -0.171730 -0.455850 -0.270900 17.998819 -8.617684 4.012690 -19.761401 10.276464 -34.015921 15.536744 -18.002281 60.074098 -1.457388 -10.494469 0.808204 -0.198600 0.503130 0.004560 -2.441470 -4.108988 -8.886499 1.130576 5.676846 53.980603 0.185683 6.026804 15.731912 2.563323 1.273802 -16.457806 -2.935219 -3.124657 47.730204 22.812530 -14.155060 -6.399110 -9.139207 -26.858074 10.853911 -17.882390 -10.422943 1.634618 3.404761 0.700403 -0.851109 -3.916802 2.474189 0.618230 0.009890 -0.125880 0.074570 3.551562 30.418180 11.304939 -10.329847 -5.884858 -18.376780 -124.591571 11.521548 -35.161416 2.417555 -1.892188 -0.412590 0.427810 0.357960 -0.054270 
0.173040 13.731750 -2.954880 -73.327975 36.642126 -71.520431 -15.649685 11.705266 4.470825 -11.700198 -10.436454 -33.867882 -3.213342 7.938388 34.108588 -0.135207 5.525177 2.637445 -0.188310 -0.438960 -0.341810 18.154290 -8.151226 4.538834 -23.479283 10.405947 -37.530105 25.525073 -20.765690 52.595954 -1.444151 -10.484759 0.816315 -0.189590 0.555550 0.026260 -2.800771 -3.328372 -9.235109 3.880351 4.350997 52.159507 -2.081756 5.937329 15.235113 2.998405 1.126264 -16.348032 -2.531104 -2.788161 46.064775 21.386410 -13.640120 -3.726780 -9.313461 -26.493202 10.610601 -18.211828 -10.760710 1.863101 2.980593 0.824004 -0.791343 -3.983087 2.541196 0.525050 0.073560 -0.174690 0.097020 2.865429 29.972004 11.039520 -10.250269 -3.765140 -17.756798 -124.404754 10.790929 -33.476539 2.405010 -1.941316 -0.381210 0.396250 0.367700 -0.011810 
0.151910 13.684900 -3.004820 -70.394755 36.657134 -68.403917 -15.700697 11.440836 4.515278 -10.842141 -10.959690 -35.443413 -7.030030 8.734314 31.658913 -0.102394 5.411508 2.696834 -0.170890 -0.386350 -0.369440 18.160690 -7.846813 4.763401 -26.184033 10.013476 -39.237804 31.137936 -19.896126 45.110792 -1.283177 -9.817664 1.017113 -0.161310 0.591610 0.043720 -2.716053 -3.326289 -9.334348 2.577517 5.538199 50.535337 -1.954076 6.749000 15.767902 3.385889 1.421043 -15.944009 -1.377685 -3.262939 44.294904 19.328980 -13.040700 -2.425620 -9.417219 -25.959458 10.228540 -18.965712 -11.431576 1.964393 3.331833 1.162594 -0.751717 -4.033327 2.603795 0.438250 0.120880 -0.201580 0.135370 2.083864 29.962232 10.822867 -11.179169 -1.950802 -17.333921 -124.370163 9.791551 -31.609126 2.419032 -1.992647 -0.346980 0.385970 0.345210 0.028630 
0.136700 13.639960 -3.072060 -68.621847 37.124106 -66.574818 -15.719335 11.304478 4.705051 -10.413884 -11.747766 -36.987054 -9.123120 9.000952 30.511602 -0.083584 5.352664 2.718573 -0.127820 -0.316420 -0.349370 18.148718 -7.828721 4.683900 -26.979122 8.993736 -38.747335 32.584116 -17.060991 37.777851 -1.023549 -8.704533 1.349149 -0.129020 0.564890 0.052260 -2.645895 -3.287641 -9.324974 1.829486 5.889115 50.186863 -2.141906 7.066449 15.975595 3.881265 1.824284 -15.613553 -0.368146 -4.370747 43.139290 17.001910 -12.623720 -3.150030 -9.717437 -25.763917 9.932101 -19.348601 -12.049012 1.954784 3.612977 1.435540 -0.730293 -4.036509 2.636899 0.404180 0.125800 -0.190010 0.155470 1.310398 29.949430 10.550645 -11.462917 -0.435364 -17.588180 -123.419703 8.585399 -29.347484 2.431864 -2.030995 -0.313580 0.372170 0.307720 0.038740 
